<svg width="18" height="18" viewBox="0 0 18 18" fill="none" xmlns="http://www.w3.org/2000/svg">
<g clip-path="url(#clip0_1_416)">
<path d="M9 13.6013C8.74077 13.6071 8.48297 13.5614 8.24156 13.4667C8.00016 13.3721 7.77996 13.2304 7.59375 13.05C7.46811 12.9358 7.36732 12.797 7.29765 12.6421C7.22797 12.4873 7.1909 12.3198 7.18875 12.15C7.18875 11.962 7.11408 11.7818 6.98116 11.6488C6.84825 11.5159 6.66797 11.4413 6.48 11.4413C6.38745 11.4412 6.29582 11.4596 6.21045 11.4954C6.12509 11.5312 6.04769 11.5835 5.98277 11.6495C5.91785 11.7155 5.86671 11.7937 5.83233 11.8796C5.79795 11.9655 5.78101 12.0575 5.7825 12.15C5.78308 12.5061 5.8562 12.8583 5.99739 13.1852C6.13859 13.5121 6.3449 13.8067 6.60375 14.0512C7.24434 14.6748 8.10613 15.0187 9 15.0075C9.0998 15.0201 9.20115 15.0114 9.29731 14.9819C9.39347 14.9523 9.48224 14.9026 9.55771 14.8361C9.63319 14.7696 9.69364 14.6878 9.73504 14.5961C9.77645 14.5044 9.79787 14.405 9.79787 14.3044C9.79787 14.2038 9.77645 14.1043 9.73504 14.0126C9.69364 13.921 9.63319 13.8391 9.55771 13.7726C9.48224 13.7061 9.39347 13.6564 9.29731 13.6269C9.20115 13.5973 9.0998 13.5886 9 13.6013Z" fill="#d33131"/>
<path d="M10.4062 1.40625C10.1925 0.25875 9.48375 0 9 0C8.51625 0 7.8075 0.25875 7.59375 1.40625C6.75 5.85 2.8125 7.875 2.8125 12.1725C2.86248 13.765 3.54188 15.2728 4.70176 16.3651C5.86164 17.4575 7.40734 18.0455 9 18C10.5927 18.0455 12.1384 17.4575 13.2982 16.3651C14.4581 15.2728 15.1375 13.765 15.1875 12.1725C15.1875 7.875 11.25 5.85 10.4062 1.40625ZM9 16.5938C7.78022 16.6394 6.59207 16.1997 5.69587 15.371C4.79967 14.5423 4.26851 13.3921 4.21875 12.1725C4.21875 10.305 5.175 8.91 6.28875 7.30125C7.59296 5.64285 8.51836 3.71909 9 1.665C9 1.665 9 1.58625 9 1.5525C9 1.51875 9 1.62 9 1.665C9.47645 3.71325 10.394 5.63288 11.6888 7.29C12.8138 8.89875 13.7587 10.2938 13.7587 12.1613C13.7118 13.3788 13.1851 14.5284 12.2934 15.3589C11.4018 16.1893 10.2178 16.6333 9 16.5938Z" fill="#d33131"/>
</g>
<defs>
<clipPath id="clip0_1_416">
<rect width="18" height="18" fill="white"/>
</clipPath>
</defs>
</svg>

