<svg xmlns="http://www.w3.org/2000/svg" width="20" height="20" viewBox="0 0 20 20" fill="none">
  <path d="M15.25 4.75831C14.925 4.43331 14.4 4.43331 14.075 4.75831L10 8.82498L5.92501 4.74998C5.60001 4.42498 5.07501 4.42498 4.75001 4.74998C4.42501 5.07498 4.42501 5.59998 4.75001 5.92498L8.82501 9.99998L4.75001 14.075C4.42501 14.4 4.42501 14.925 4.75001 15.25C5.07501 15.575 5.60001 15.575 5.92501 15.25L10 11.175L14.075 15.25C14.4 15.575 14.925 15.575 15.25 15.25C15.575 14.925 15.575 14.4 15.25 14.075L11.175 9.99998L15.25 5.92498C15.5667 5.60831 15.5667 5.07498 15.25 4.75831Z" fill="#475467"/>
</svg>