<svg xmlns="http://www.w3.org/2000/svg" width="17" height="16" viewBox="0 0 17 16" fill="none">
  <path fill-rule="evenodd" clip-rule="evenodd" d="M15.35 8C15.35 11.377 12.4051 14.25 8.59998 14.25C4.79483 14.25 1.84998 11.377 1.84998 8C1.84998 4.62299 4.79483 1.75 8.59998 1.75C12.4051 1.75 15.35 4.62299 15.35 8ZM16.6 8C16.6 12.1421 13.0183 15.5 8.59998 15.5C4.1817 15.5 0.599976 12.1421 0.599976 8C0.599976 3.85786 4.1817 0.5 8.59998 0.5C13.0183 0.5 16.6 3.85786 16.6 8ZM9.2287 3.10118L9.21492 10.4012L7.96492 10.3988L7.97871 3.09882L9.2287 3.10118ZM9.245 12.35C9.245 11.991 8.95398 11.7 8.595 11.7C8.23601 11.7 7.945 11.991 7.945 12.35C7.945 12.709 8.23601 13 8.595 13C8.95398 13 9.245 12.709 9.245 12.35Z" fill="#EA580C"/>
</svg>