<svg xmlns="http://www.w3.org/2000/svg" width="24" height="24" viewBox="0 0 24 24" fill="none">
  <path d="M10.817 4.45403L11 4.62903C11.9404 3.68852 13.1666 3.08711 14.4859 2.9193C15.8053 2.75149 17.143 3.02679 18.2888 3.70195C19.4347 4.3771 20.3238 5.41384 20.8163 6.64924C21.3089 7.88465 21.377 9.24869 21.01 10.527C21.5653 10.7263 22.0612 11.0626 22.4517 11.5049C22.8421 11.9471 23.1144 12.4809 23.2434 13.0566C23.3723 13.6323 23.3536 14.2312 23.189 14.7977C23.0244 15.3643 22.7193 15.88 22.302 16.297L17.001 21.6L14.001 18.6L11.001 21.6L2.51601 13.115C1.40616 12.0054 0.77526 10.5051 0.758579 8.93575C0.741898 7.36642 1.34077 5.85303 2.42678 4.72005C3.51279 3.58708 4.99949 2.92472 6.56812 2.87499C8.13675 2.82526 9.66242 3.39212 10.818 4.45403H10.817ZM12.574 5.89303L12.414 6.04303L11.03 7.43003L9.45401 5.91803L9.29701 5.78103C8.55878 5.17451 7.62788 4.8522 6.67266 4.87237C5.71744 4.89255 4.80098 5.25388 4.08901 5.89103L3.92901 6.04403C3.20584 6.76728 2.78719 7.74007 2.7591 8.76247C2.73102 9.78486 3.09564 10.7792 3.77801 11.541L3.92801 11.701L11 18.77L12.585 17.184L11.697 16.296C11.372 15.971 11.1142 15.5851 10.9383 15.1605C10.7624 14.7358 10.6718 14.2807 10.6718 13.821C10.6718 13.3614 10.7624 12.9062 10.9383 12.4816C11.1142 12.0569 11.372 11.671 11.697 11.346C12.022 11.021 12.4079 10.7632 12.8326 10.5873C13.2572 10.4114 13.7124 10.3208 14.172 10.3208C14.6317 10.3208 15.0868 10.4114 15.5115 10.5873C15.9361 10.7632 16.322 11.021 16.647 11.346L17 11.7L17.354 11.347C17.804 10.897 18.348 10.594 18.922 10.441C19.2205 9.74119 19.3131 8.97075 19.1891 8.2201C19.0652 7.46945 18.7297 6.76973 18.222 6.20303L18.072 6.04303C17.3486 5.31971 16.3755 4.90105 15.3529 4.87315C14.3303 4.84525 13.3358 5.21023 12.574 5.89303ZM13.111 12.761C12.8483 13.0236 12.6923 13.3743 12.6733 13.7452C12.6542 14.1162 12.7735 14.481 13.008 14.769L13.111 14.882L16.999 18.771L20.889 14.882C21.1515 14.6195 21.3073 14.269 21.3263 13.8983C21.3453 13.5276 21.2262 13.163 20.992 12.875L20.889 12.761C20.6261 12.498 20.2749 12.3421 19.9035 12.3234C19.5321 12.3047 19.167 12.4247 18.879 12.66L18.766 12.763L16.998 14.526L15.232 12.761C14.9507 12.4798 14.5693 12.3218 14.1715 12.3218C13.7738 12.3218 13.3923 12.4798 13.111 12.761Z" fill="white"/>
</svg>